<svg xmlns="http://www.w3.org/2000/svg"  viewBox="0 0 50 50" width="50px" height="50px"><path d="M 4 4 L 4 5 L 4 46 L 46 46 L 46 4 L 4 4 z M 6 6 L 44 6 L 44 44 L 6 44 L 6 6 z M 8 8 L 8 9 L 8 42 L 42 42 L 42 8 L 8 8 z M 10 10 L 40 10 L 40 40 L 10 40 L 10 10 z M 27 13 C 18.72 13 14 19.27 14 27 C 14 33.08 18 37 24 37 C 26.205 37 27.925328 36.651938 29.236328 36.085938 C 30.612328 35.491937 31.598562 34.242969 31.976562 32.792969 C 32.216555 31.873635 32.523433 30.21535 32.876953 28 L 35 28 L 35 26 L 33.197266 26 L 28.167969 26 L 25 26 L 25 28 L 27.876953 28 C 27.582773 30.031765 27.32636 31.686427 27.117188 32.535156 C 26.762187 33.972156 25.48 34.982 24 35 C 21 35 19 32 19 27 C 19 20 23 15 27.75 15 C 30.65 15 32 17.24 32 20 L 34 20 L 35 15 C 33.64 14.07 32 13 27 13 z"/></svg>